<svg xmlns="http://www.w3.org/2000/svg" viewBox="0 0 46 212" fill="none">
  <g transform="translate(46 0) scale(-.72 .78)">
    <path fill="#362018" fill-opacity=".9" d="M26 0C-16 18-7 69 18 91c16 14 16 32-10 45 26 13 26 31 10 45-25 22-34 73 8 91-30-12-27-56 2-80 21-18 20-41-5-56 25-15 26-38 5-56C-1 56-4 12 26 0Z"/>
    <path fill="#362018" fill-opacity=".9" d="M20 39C-7 35-12 5 12 1c27-3 33 30 8 38Zm0-13c10-3 9-15-2-15-12 1-11 14 2 15ZM20 233c-27 4-32 34-8 38 27 3 33-30 8-38Zm0 13c10 3 9 15-2 15-12-1-11-14 2-15Z"/>
  </g>
</svg>
